<?xml version="1.0" standalone="no"?><!DOCTYPE svg PUBLIC "-//W3C//DTD SVG 1.1//EN" "http://www.w3.org/Graphics/SVG/1.1/DTD/svg11.dtd"><svg t="1646736679836" class="icon" viewBox="0 0 1024 1024" version="1.1" xmlns="http://www.w3.org/2000/svg" p-id="1704" xmlns:xlink="http://www.w3.org/1999/xlink" width="16" height="16"><defs><style type="text/css"></style></defs><path d="M245.76 34.13333333h532.48C918.18666667 34.13333333 989.86666667 105.81333333 989.86666667 245.76v532.48c0 139.94666667-71.68 211.62666667-211.62666667 211.62666667H245.76C105.81333333 989.86666667 34.13333333 918.18666667 34.13333333 778.24V245.76C34.13333333 105.81333333 105.81333333 34.13333333 245.76 34.13333333z" fill="#FF5CA1" p-id="1705"></path><path d="M720.21333333 450.56c3.41333333 0 17.06666667-3.41333333 17.06666667-3.41333333l6.82666667 51.2-13.65333334 3.41333333c0-6.82666667-10.24-47.78666667-10.24-51.2m27.30666667-6.82666667l6.82666667 54.61333334h20.48c-3.41333333-20.48-10.24-54.61333333-10.24-54.61333334h-17.06666667m-13.65333333 75.09333334s30.72-6.82666667 40.96-3.41333334c6.82666667 20.48 17.06666667 136.53333333 17.06666666 139.94666667-6.82666667 0-30.72 3.41333333-30.72 3.41333333-3.41333333-6.82666667-27.30666667-133.12-27.30666666-139.94666666m112.64-68.26666667h17.06666666c0 3.41333333 3.41333333 51.2 0 51.2h-13.65333333c0-3.41333333-3.41333333-47.78666667-3.41333333-51.2m23.89333333 0v54.61333333h20.48v-54.61333333c-6.82666667 0-13.65333333-3.41333333-20.48 0m-20.48 71.68s30.72-3.41333333 40.96 0c3.41333333 23.89333333 3.41333333 136.53333333 3.41333333 139.94666667h-30.72c0-6.82666667-13.65333333-136.53333333-13.65333333-139.94666667m-71.68-139.94666667c17.06666667 92.16 30.72 252.58666667 34.13333333 262.82666667h30.72c-13.65333333-98.98666667-23.89333333-259.41333333-23.89333333-262.82666667-3.41333333-6.82666667-40.96 0-40.96 0m-40.96 221.86666667c-3.41333333-27.30666667-95.57333333-54.61333333-150.18666667-47.78666667 0 0-6.82666667-58.02666667-10.24-112.64-3.41333333-47.78666667 0-95.57333333 0-102.4-3.41333333-3.41333333-40.96 17.06666667-61.44 23.89333334 0 0 23.89333333 102.4 40.96 317.44 0 0 27.30666667 3.41333333 75.09333334-6.82666667 54.61333333-10.24 109.22666667-37.54666667 105.81333333-71.68M624.64 648.53333333l-10.24-58.02666666c3.41333333 0 51.2 17.06666667 58.02666667 20.48 0 3.41333333-47.78666667 37.54666667-47.78666667 37.54666666m-293.54666667-197.97333333c3.41333333 0 17.06666667-3.41333333 17.06666667-3.41333333l6.82666667 51.2c-3.41333333 0-13.65333333 3.41333333-13.65333334 3.41333333 0-6.82666667-10.24-47.78666667-10.24-51.2m27.30666667-6.82666667l6.82666667 54.61333334h20.48c-3.41333333-20.48-6.82666667-54.61333333-6.82666667-54.61333334h-20.48m-13.65333333 75.09333334s30.72-6.82666667 40.96-3.41333334c6.82666667 20.48 17.06666667 136.53333333 17.06666666 139.94666667-6.82666667 0-30.72 3.41333333-30.72 3.41333333-3.41333333-6.82666667-27.30666667-133.12-27.30666666-139.94666666m112.64-68.26666667h17.06666666c0 3.41333333 3.41333333 51.2 0 51.2h-13.65333333c0-3.41333333-3.41333333-47.78666667-3.41333333-51.2m27.30666666 0v54.61333333h20.48v-54.61333333c-6.82666667 0-13.65333333-3.41333333-20.48 0m-23.89333333 71.68s30.72-3.41333333 40.96 0c3.41333333 23.89333333 3.41333333 136.53333333 3.41333333 139.94666667h-30.72c0-6.82666667-13.65333333-136.53333333-13.65333333-139.94666667m-71.68-139.94666667c17.06666667 92.16 30.72 252.58666667 34.13333333 262.82666667h30.72c-10.24-98.98666667-20.48-259.41333333-20.48-266.24-6.82666667-3.41333333-44.37333333 3.41333333-44.37333333 3.41333333m-40.96 221.86666667c-3.41333333-27.30666667-95.57333333-54.61333333-150.18666667-47.78666667 0 0-6.82666667-58.02666667-10.24-112.64-3.41333333-47.78666667 0-95.57333333 0-102.4-3.41333333-3.41333333-40.96 17.06666667-61.44 23.89333334 0 0 23.89333333 102.4 40.96 317.44 0 0 27.30666667 3.41333333 75.09333334-6.82666667s112.64-37.54666667 105.81333333-71.68M235.52 648.53333333l-6.82666667-58.02666666c3.41333333 0 51.2 17.06666667 58.02666667 20.48-3.41333333 3.41333333-51.2 37.54666667-51.2 37.54666666" fill="#FFFFFF" p-id="1706"></path></svg>