<?xml version="1.0" standalone="no"?><!DOCTYPE svg PUBLIC "-//W3C//DTD SVG 1.1//EN" "http://www.w3.org/Graphics/SVG/1.1/DTD/svg11.dtd"><svg t="1646736675298" class="icon" viewBox="0 0 1024 1024" version="1.1" xmlns="http://www.w3.org/2000/svg" p-id="1564" xmlns:xlink="http://www.w3.org/1999/xlink" width="16" height="16"><defs><style type="text/css"></style></defs><path d="M842 992H182C99.5 992 32 924.5 32 842V182C32 99.5 99.5 32 182 32h660c82.5 0 150 67.5 150 150v660c0 82.5-67.5 150-150 150z" fill="#07B906" p-id="1565"></path><path d="M512 512m-387 0a387 387 0 1 0 774 0 387 387 0 1 0-774 0Z" fill="#FFFFFF" p-id="1566"></path><path d="M512 32C246.5 32 32 248 32 512s214.5 480 480 480c264 0 480-214.5 480-480-1.5-264-216-480-480-480z m-88.5 607.5c-22.5 0-46.5-4.5-67.5-9-1.5 0-4.5-1.5-4.5-1.5l-52.5 30c-13.5 7.5-22.5 1.5-19.5-13.5 0 0 13.5-55.5 12-55.5-49.5-33-73.5-75-73.5-132 4.5-97.5 88.5-174 204-174 105 0 192 64.5 207 151.5h-9c-105 0-192 73.5-192 163.5 0 15 1.5 28.5 6 42h-10.5v-1.5z m309 75l15 30c7.5 13.5 1.5 19.5-12 12 0 0-39-22.5-40.5-21-18 6-55.5 12-75 12-97.5 0-178.5-67.5-178.5-150s81-150 178.5-150 178.5 67.5 178.5 150c0 46.5-24 87-66 117z" fill="#07B906" p-id="1567"></path><path d="M318.5 396.5c0 9 4.5 18 13.5 24 9 4.5 18 4.5 27 0 9-4.5 13.5-13.5 13.5-24 0-9-4.5-18-13.5-24-9-4.5-18-4.5-27 0-9 4.5-13.5 13.5-13.5 24z m340.5 142.5c0 12 10.5 22.5 22.5 22.5s22.5-10.5 22.5-22.5-10.5-22.5-22.5-22.5-22.5 10.5-22.5 22.5z m-126 0c0 12 10.5 22.5 22.5 22.5s22.5-10.5 22.5-22.5-10.5-22.5-22.5-22.5-22.5 10.5-22.5 22.5z m-54-142.5c0 15 12 27 27 27s27-12 27-27c0-9-4.5-18-13.5-24-9-4.5-18-4.5-27 0-7.5 4.5-13.5 13.5-13.5 24z" fill="#07B906" p-id="1568"></path></svg>