<svg xmlns="http://www.w3.org/2000/svg" xmlns:xlink="http://www.w3.org/1999/xlink" width="30" height="30" viewBox="0 0 30 30" fill="none"><defs><rect id="path_0" x="0" y="0" width="16" height="16" /></defs><g opacity="1" transform="translate(0 0)  rotate(0 15 15)"><path id="矩形 1" fill-rule="evenodd" style="fill:#FFFFFF" transform="translate(0 0)  rotate(0 15 15)" opacity="1" d="M0,30L30,30L30,0L0,0L0,30Z " /><g opacity="1" transform="translate(7 7)  rotate(0 8 8)"><mask id="bg-mask" fill="white"><use xlink:href="#path_0"></use></mask><g mask="url(#bg-mask)" ><path id="分组 1" fill-rule="evenodd" style="fill:#0092FB" transform="translate(0 0)  rotate(0 8 8)" opacity="1" d="M0 8C0 12.42 3.58 16 8 16C12.42 16 16 12.42 16 8C16 3.58 12.42 0 8 0C3.58 0 0 3.58 0 8Z M11.5811 8.00164C11.5811 7.64164 11.2911 7.36164 10.9411 7.36164L8.6411 7.36164L8.6411 5.06164C8.6411 4.71164 8.3511 4.42164 8.0011 4.42164C7.6411 4.42164 7.3611 4.71164 7.3611 5.06164L7.3611 7.36164L5.0611 7.36164C4.7111 7.36164 4.4211 7.64164 4.4211 8.00164C4.4211 8.35164 4.7111 8.64164 5.0611 8.64164L7.3611 8.64164L7.3611 10.9416C7.3611 11.2916 7.6411 11.5816 8.0011 11.5816C8.3511 11.5816 8.6411 11.2916 8.6411 10.9416L8.6411 8.64164L10.9411 8.64164C11.2911 8.64164 11.5811 8.35164 11.5811 8.00164Z " /></g></g></g></svg>