<svg xmlns="http://www.w3.org/2000/svg" xmlns:xlink="http://www.w3.org/1999/xlink" width="32" height="32" viewBox="0 0 32 32" fill="none"><defs><rect id="path_0" x="0" y="0" width="24" height="24" /></defs><g opacity="1" transform="translate(0 0)  rotate(0 16 16)"><path id="矩形 1" fill-rule="evenodd" style="fill:#00A46B" transform="translate(0 0)  rotate(0 16 16)" opacity="1" d="M32,0L0,0L0,32L32,32L32,0Z " /><g opacity="1" transform="translate(4 4)  rotate(0 12 12)"><mask id="bg-mask-0" fill="white"><use xlink:href="#path_0"></use></mask><g mask="url(#bg-mask-0)" ><path id="分组 1" fill-rule="evenodd" style="fill:#FFFFFF" transform="translate(1.2002509064367457 1.2010993382322823)  rotate(0 10.818925558128859 10.823370124066539)" opacity="1" d="M19.72 16.89C19.79 16.9 19.79 16.89 19.96 16.63C20.8 15.3 21.34 13.83 21.55 12.29C21.65 11.56 21.67 10.4 21.59 9.72C21.29 6.99 20.08 4.6 18.07 2.79C16.62 1.48 14.78 0.56 12.86 0.19C9.27 -0.49 5.61 0.66 3.06 3.29C2.05 4.33 1.29 5.51 0.76 6.84C-0.5 10.03 -0.18 13.6 1.62 16.53C2.3 17.63 3.3 18.71 4.36 19.5C6.03 20.75 7.98 21.47 10.06 21.62C11.66 21.73 13.29 21.48 14.81 20.89C15.21 20.73 16.05 20.33 16.1 20.27C16.12 20.25 16.12 20.19 16.1 20.06C16.04 19.68 16.11 19.12 16.27 18.69C16.56 17.89 17.27 17.22 18.1 16.95C18.52 16.81 19.03 16.77 19.42 16.83C19.54 16.86 19.68 16.88 19.72 16.89Z M13.6863 17.5457C13.4863 17.4157 13.2063 17.1457 13.0663 16.9557C12.8763 16.6857 12.7163 16.3157 12.6563 15.9657C12.4663 14.8757 13.0763 13.7957 14.1263 13.3657C14.4263 13.2457 14.6363 13.2157 15.0263 13.2157C15.3963 13.2157 15.5763 13.2557 15.8863 13.3757C16.4163 13.5857 16.9163 14.0557 17.1463 14.5657C17.1863 14.6457 17.2263 14.7157 17.2363 14.7157C17.2563 14.7157 17.5163 14.2257 17.6463 13.9557C18.5963 11.8957 18.5563 9.46574 17.5563 7.46574C17.1663 6.67574 16.6963 6.03574 16.0663 5.41574C14.8563 4.24574 13.4463 3.55574 11.7063 3.31574C11.3363 3.26574 10.3563 3.25574 9.98629 3.30574C8.57629 3.47574 7.3963 3.94574 6.26629 4.77574C5.80629 5.11574 5.22629 5.69574 4.86629 6.15574C3.4563 7.95574 2.9363 10.3257 3.4663 12.5257C3.78629 13.8457 4.3963 14.9757 5.30629 15.9457C6.5863 17.3157 8.27629 18.1357 10.1663 18.3057C10.4963 18.3357 11.3763 18.3157 11.7363 18.2757C12.2363 18.2057 12.6963 18.1057 13.1663 17.9557C13.4063 17.8757 13.8263 17.7157 13.8563 17.6857C13.8663 17.6757 13.7863 17.6157 13.6863 17.5457Z M16.85 15.5791C16.85 14.8591 16.46 14.2391 15.81 13.9091C15.46 13.7391 14.97 13.6791 14.58 13.7691C13.25 14.0891 12.71 15.6591 13.56 16.7291C13.83 17.0791 14.26 17.3291 14.69 17.4091C14.86 17.4391 15.24 17.4191 15.43 17.3791C16.26 17.1691 16.85 16.4291 16.85 15.5791Z " /></g></g></g></svg>