<svg xmlns="http://www.w3.org/2000/svg" xmlns:xlink="http://www.w3.org/1999/xlink" width="32" height="32" viewBox="0 0 32 32" fill="none"><defs><rect id="path_0" x="0" y="0" width="32" height="32" /></defs><g opacity="1" transform="translate(0 0)  rotate(0 16 16)"><mask id="bg-mask-0" fill="white"><use xlink:href="#path_0"></use></mask><g mask="url(#bg-mask-0)" ><path id="矩形 1" fill-rule="evenodd" style="fill:#FFFFFF" transform="translate(0 0)  rotate(0 16 16)" opacity="1" d="M0,32L32,32L32,0L0,0L0,32Z " /><g opacity="1" transform="translate(3 3)  rotate(0 12.999999999999993 13.486343691091747)"><path id="路径 1" fill-rule="evenodd" style="fill:#FD6F74" transform="translate(0.029898804047838075 0.03587856485742744)  rotate(0 12.970101195952155 12.970101195952157)" opacity="1" d="M12.97 25.94C5.81 25.94 0 20.13 0 12.97C0 5.81 5.81 0 12.97 0C20.13 0 25.94 5.81 25.94 12.97C25.94 20.13 20.13 25.94 12.97 25.94Z" /><path id="路径 3" fill-rule="evenodd" style="fill:#FFFFFF" transform="translate(2.68 7.61)  rotate(0 8.359705611775526 9.681343691091747)" opacity="1" d="M0 14.25L4.49 3.74C5.5 1.55 7.7 0.02 10.26 0C13.81 -0.03 16.71 2.97 16.71 6.52L16.72 17.67C14.83 18.75 12.65 19.36 10.32 19.36C6.11 19.36 2.37 17.35 0 14.25Z" /><path id="路径 4" fill-rule="evenodd" style="fill:#FFFFFF" transform="translate(19.386384544618195 12.730910763569458)  rotate(0 1.6264949402023923 1.8836246550137987)" opacity="1" d="M0,0L0,3.77L3.25,1.88L0,0Z " /><path id="路径 5" fill-rule="evenodd" style="fill:#FD6F74" transform="translate(10.91904323827046 10.913063477460897)  rotate(0 2.0869365225390974 2.0869365225390974)" opacity="1" d="M2.09,0C0.93,0 0,0.93 0,2.09C0,3.24 0.93,4.17 2.09,4.17C3.24,4.17 4.17,3.24 4.17,2.09C4.17,0.93 3.24,0 2.09,0Z " /><path id="路径 9" fill-rule="evenodd" style="fill:#FEE7E8" transform="translate(13.717571297148114 12.659153633854658)  rotate(0 2.843376264949401 6.649494020239187)" opacity="0.7" d="M0,13.3C2.06,13.19 3.99,12.59 5.69,11.63L5.67,0L0,13.3Z " /></g></g></g></svg>