<svg xmlns="http://www.w3.org/2000/svg" xmlns:xlink="http://www.w3.org/1999/xlink" width="32" height="32" viewBox="0 0 32 32" fill="none"><defs><rect id="path_0" x="0" y="0" width="32" height="32" /></defs><g opacity="1" transform="translate(0 0)  rotate(0 16 16)"><mask id="bg-mask-0" fill="white"><use xlink:href="#path_0"></use></mask><g mask="url(#bg-mask-0)" ><path id="路径 1" fill-rule="evenodd" style="fill:#FFD95A" transform="translate(0 0)  rotate(0 16 16)" opacity="1" d="M0,32L32,32L32,0L0,0L0,32Z " /><path id="路径 2" fill-rule="evenodd" style="fill:#000000" transform="translate(8.495999999999999 5.6960000000000015)  rotate(0 7.504000000000001 2.688)" opacity="1" d="M0.73,0C0.33,0 0,0.33 0,0.73L0,1.12C0,3.47 1.91,5.38 4.26,5.38L10.75,5.38C13.1,5.38 15.01,3.47 15.01,1.12L15.01,0.73C15.01,0.33 14.68,0 14.28,0C13.88,0 13.55,0.33 13.55,0.73L13.55,1.12C13.55,2.67 12.3,3.92 10.75,3.92L4.26,3.92C2.71,3.92 1.46,2.67 1.46,1.12L1.46,0.73C1.46,0.33 1.13,0 0.73,0Z " /><path id="路径 3" fill-rule="evenodd" style="fill:#000000" transform="translate(10.512000000000002 13.2)  rotate(0 1.1760000000000002 1.1760000000000002)" opacity="1" d="M2.35,1.18C2.35,0.53 1.83,0 1.18,0C0.53,0 0,0.53 0,1.18C0,1.83 0.53,2.35 1.18,2.35C1.83,2.35 2.35,1.83 2.35,1.18Z " /><path id="路径 4" fill-rule="evenodd" style="fill:#000000" transform="translate(10.624 20.928)  rotate(0 1.175999999999999 1.175999999999999)" opacity="1" d="M2.35,1.18C2.35,0.53 1.83,0 1.18,0C0.53,0 0,0.53 0,1.18C0,1.83 0.53,2.35 1.18,2.35C1.83,2.35 2.35,1.83 2.35,1.18Z " /><path id="路径 5" fill-rule="evenodd" style="fill:#000000" transform="translate(19.024 20.928)  rotate(0 1.175999999999999 1.175999999999999)" opacity="1" d="M1.18,0C0.53,0 0,0.53 0,1.18C0,1.83 0.53,2.35 1.18,2.35C1.83,2.35 2.35,1.83 2.35,1.18C2.35,0.53 1.83,0 1.18,0Z " /><path id="分组 1" fill-rule="evenodd" style="fill:#000000" transform="translate(7.3759999999999994 17.904)  rotate(0 8.624 4.2)" opacity="1" d="M4.2 8.4L13.05 8.4C15.37 8.4 17.25 6.52 17.25 4.2C17.25 1.88 15.37 0 13.05 0L4.2 0C1.88 0 0 1.88 0 4.2C0 6.52 1.88 8.4 4.2 8.4Z M1.456 4.196C1.456 5.716 2.686 6.946 4.196 6.946L13.046 6.946C14.566 6.946 15.796 5.716 15.796 4.196C15.796 2.686 14.566 1.456 13.046 1.456L4.196 1.456C2.686 1.456 1.456 2.686 1.456 4.196Z " /><path id="路径 8" fill-rule="evenodd" style="fill:#000000" transform="translate(18.8 13.872000000000003)  rotate(0 1.344000000000001 0.3919999999999993)" opacity="1" d="M0.39,0.78L2.3,0.78C2.51,0.78 2.69,0.61 2.69,0.39C2.69,0.18 2.51,0 2.3,0L0.39,0C0.18,0 0,0.18 0,0.39C0,0.61 0.18,0.78 0.39,0.78Z " /></g></g></svg>