<?xml version="1.0" standalone="no"?><!DOCTYPE svg PUBLIC "-//W3C//DTD SVG 1.1//EN" "http://www.w3.org/Graphics/SVG/1.1/DTD/svg11.dtd"><svg t="1649644893676" class="icon" viewBox="0 0 1024 1024" version="1.1" xmlns="http://www.w3.org/2000/svg" p-id="1825" xmlns:xlink="http://www.w3.org/1999/xlink" width="16" height="16"><defs><style type="text/css">@font-face { font-family: feedback-iconfont; src: url("//at.alicdn.com/t/font_1031158_u69w8yhxdu.woff2?t=1630033759944") format("woff2"), url("//at.alicdn.com/t/font_1031158_u69w8yhxdu.woff?t=1630033759944") format("woff"), url("//at.alicdn.com/t/font_1031158_u69w8yhxdu.ttf?t=1630033759944") format("truetype"); }
</style></defs><path d="M-34.13-30.788h1088.922v1088.922h-1088.922z" fill="#053B5D" p-id="1826"></path><path d="M700.38 551.623v266.228c0 30.427 15.214 45.638 45.638 45.638 25.317 0 39.283-15.214 41.838-45.638v-600.918c-2.556-32.922-16.521-50.689-41.838-53.247-30.425 2.556-45.638 20.324-45.638 53.247v262.427h-365.114v-262.427c-2.556-32.922-16.523-50.689-41.837-53.247-27.931 2.556-41.837 20.324-41.837 53.247v600.918c0 30.427 13.905 45.638 41.837 45.638 25.315 0 39.281-15.214 41.837-45.638v-266.228h365.114z" fill="#DFDFDF" p-id="1827"></path></svg>