<svg xmlns="http://www.w3.org/2000/svg" xmlns:xlink="http://www.w3.org/1999/xlink" width="30" height="30" viewBox="0 0 30 30" fill="none"><defs><rect id="path_0" x="0" y="0" width="30" height="30" /></defs><g opacity="1" transform="translate(0 0)  rotate(0 15 15)"><mask id="bg-mask" fill="white"><use xlink:href="#path_0"></use></mask><g mask="url(#bg-mask)" ><g opacity="1" transform="translate(0 0)  rotate(0 15 15)"><path id="5" fill-rule="evenodd" style="fill:#FFFFFF" transform="translate(0 0)  rotate(0 15 15)" opacity="1" d="M0,30L30,30L30,0L0,0L0,30Z " /><g opacity="1" transform="translate(4.453125 4.218749999977391)  rotate(0 10.546875 10.863281250011307)"><path id="1" fill-rule="evenodd" style="fill:#00B1F2" transform="translate(0 0)  rotate(0 10.546875 10.863281250011307)" opacity="1" d="M0.16,5.04L0.14,5.24C0.13,5.27 0.13,5.31 0.12,5.34L0.1,5.54C0.09,5.61 0.09,5.67 0.08,5.74L0.06,5.95L0.04,6.15L0.04,6.26C1.22,4.51 2.94,3.13 4.71,3.13C8.94,3.13 14.47,8.68 14.29,10.7C14.01,13.76 7.69,18.54 4.95,18.54C3.33,18.54 1.35,17.19 0,15.3L0.02,15.5L0.03,15.71C0.04,15.78 0.04,15.85 0.05,15.91L0.07,16.12L0.1,16.32C0.47,19.33 1.63,21.73 5.19,21.73C10.94,21.73 21.09,14.67 21.09,10.6C21.09,7.91 12,-0.35 4.71,0.01C1.9,0.15 0.74,1.87 0.27,4.38L0.24,4.57C0.22,4.66 0.2,4.75 0.19,4.85L0.16,5.04Z " /><path id="2" fill-rule="evenodd" style="fill:#FF8814" transform="translate(0.0583363935937502 6.021873900809785)  rotate(0 5.547873146953125 4.6053610428686325)" opacity="1" d="M2.37,6.92C1.61,6.8 0.97,5.58 1.04,5.08C1.1,4.58 1.5,4.56 1.88,4.5C2.26,4.45 2.83,4.07 3.38,3.43C3.93,2.79 3.97,2.26 4.65,1.34C5.32,0.41 6.76,0.18 7.62,0.43C8.49,0.68 9.25,1.46 8.87,2.7C8.49,3.95 6.62,5.48 6.69,6.95C6.76,8.43 7.68,8.96 8.65,9.17C9.63,9.39 11.1,8.6 11.1,8.08C11.1,7.55 10.79,7.66 10.53,6.81C10.27,5.97 10.43,3.87 10.27,3.1C10.11,2.33 9.73,0.85 7.88,0.18C6.02,-0.49 4.2,0.83 3.77,1.63C3.35,2.43 2.76,3 2.42,3.3C2.08,3.61 0.99,4.22 0.65,4.17C0.31,4.12 0,4.37 0,4.78C0,5.2 0.34,5.26 0.42,5.48C0.5,5.71 0.84,6.95 1.78,7.25C2.72,7.56 5.08,6.99 5.08,6.89C5.08,6.78 3.25,7.06 2.37,6.92Z " /><path id="3" fill-rule="evenodd" style="fill:#FF8814" transform="translate(4.386426632812501 8.867541398460112)  rotate(0 0.723396505158471 0.6396427148437498)" opacity="1" d="M0.91,0.79C0.93,0.61 0.98,0.5 1.11,0.5C1.23,0.5 1.16,0.84 1.35,0.84C1.54,0.84 1.47,0 0.9,0C0.32,0 0,0.42 0,0.77C0,1.12 0.22,1.28 0.44,1.28C0.67,1.28 0.9,0.97 0.91,0.79Z " /></g></g></g></g></svg>