<svg xmlns="http://www.w3.org/2000/svg" xmlns:xlink="http://www.w3.org/1999/xlink" width="30" height="30" viewBox="0 0 30 30" fill="none"><defs><rect id="path_0" x="0" y="0" width="30" height="30" /><rect id="path_1" x="0" y="0" width="24" height="24" /><linearGradient id="linear_0" x1="-0.8280978211029497%" y1="-3.3213023774290016%" x2="57.63596436653636%" y2="85.7725071780536%" gradientUnits="objectBoundingBox"><stop offset="0" stop-color="#41D1FF" stop-opacity="1" /><stop offset="1" stop-color="#BD34FE" stop-opacity="1" /></linearGradient><linearGradient id="linear_1" x1="27.985814392772518%" y1="2.2417978769248963%" x2="51.04981167626609%" y2="89.02990506274836%" gradientUnits="objectBoundingBox"><stop offset="0" stop-color="#FFEA83" stop-opacity="1" /><stop offset="0.0833333" stop-color="#FFDD35" stop-opacity="1" /><stop offset="1" stop-color="#FFA800" stop-opacity="1" /></linearGradient></defs><g opacity="1" transform="translate(0 0)  rotate(0 15 15)"><mask id="bg-mask" fill="white"><use xlink:href="#path_0"></use></mask><g mask="url(#bg-mask)" ><path id="矩形 1" fill-rule="evenodd" style="fill:#FFFFFF" transform="translate(0 0)  rotate(0 15 15)" opacity="1" d="M0,30L30,30L30,0L0,0L0,30Z " /><g opacity="1" transform="translate(3 3)  rotate(0 12 12)"><mask id="bg-mask" fill="white"><use xlink:href="#path_1"></use></mask><g mask="url(#bg-mask)" ><path id="路径 1" fill-rule="evenodd" fill="url(#linear_0)" transform="translate(0.5410989601344431 2.649123733414052)  rotate(0 11.464194922462196 10.368427142988642)" opacity="1" d="M22.24,0.01L11.68,1.97C11.61,1.98 11.54,1.98 11.47,1.97L0.69,0.01C0.2,-0.08 -0.17,0.45 0.08,0.89L11.06,20.44C11.29,20.84 11.86,20.84 12.08,20.43L22.85,0.89C23.09,0.45 22.72,-0.08 22.24,0.01Z " /><path id="路径 2" fill-rule="evenodd" fill="url(#linear_1)" transform="translate(8.451862049780818 0.08779293641878785)  rotate(0 5.256846892095158 9.725661383154739)" opacity="1" d="M9.03,0.38C9.1,0.17 8.91,-0.04 8.7,0.01L0.73,1.59C0.6,1.62 0.5,1.73 0.49,1.86L0,10.27C-0.01,10.47 0.17,10.62 0.36,10.58L2.58,10.06C2.79,10.01 2.97,10.19 2.93,10.4L2.27,13.68C2.23,13.9 2.43,14.09 2.64,14.02L4.01,13.6C4.23,13.54 4.43,13.73 4.39,13.95L3.34,19.09C3.27,19.41 3.69,19.59 3.87,19.31L3.99,19.13L10.48,5.98C10.59,5.76 10.4,5.5 10.16,5.55L7.88,6C7.67,6.04 7.48,5.84 7.54,5.62L9.03,0.38Z " /></g></g></g></g></svg>