<svg width="100" height="100" viewBox="0 0 100 100" fill="none" xmlns="http://www.w3.org/2000/svg">
<rect width="100" height="100" fill="#3BA345"/>
<g clip-path="url(#clip0_14_126)">
<path fill-rule="evenodd" clip-rule="evenodd" d="M49.5861 59.3972C44.5934 59.3972 40.4615 56.0284 40.1172 49.6454C39.7729 43.7943 44.9377 39.7163 49.7582 39.7163C55.2674 39.539 58.5385 46.0993 58.5385 46.0993L72.8278 40.7801C72.8278 40.7801 66.9744 25.1773 51.1355 25.1773C36.3297 25 26 35.6383 26 50C26 62.7659 35.641 75.5319 50.7912 75C67.3187 74.2908 73 59.3972 73 59.3972L58.3663 54.4326C58.3663 54.2553 55.4396 59.3972 49.5861 59.3972Z" fill="white"/>
</g>
<defs>
<clipPath id="clip0_14_126">
<rect width="47" height="50" fill="white" transform="translate(26 25)"/>
</clipPath>
</defs>
</svg>
