<svg xmlns="http://www.w3.org/2000/svg" xmlns:xlink="http://www.w3.org/1999/xlink" width="30" height="30" viewBox="0 0 30 30" fill="none"><defs><rect id="path_0" x="0" y="0" width="16" height="16" /></defs><g opacity="1" transform="translate(0 0)  rotate(0 15 15)"><path id="矩形 1" fill-rule="evenodd" style="fill:#0599D9" transform="translate(0 0)  rotate(0 15 15)" opacity="1" d="M0,30L30,30L30,0L0,0L0,30Z " /><g opacity="1" transform="translate(7 6.999999999999975)  rotate(0 8 8)"><mask id="bg-mask" fill="white"><use xlink:href="#path_0"></use></mask><g mask="url(#bg-mask)" ><path id="分组 1" fill-rule="evenodd" style="fill:#FFFFFF" transform="translate(0 0)  rotate(0 8 8)" opacity="1" d="M0 8C0 12.44 3.56 16 8 16C12.44 16 16 12.44 16 8C16 3.56 12.45 0 8 0C3.55 0 0 3.56 0 8Z M12.6248 9.53131C13.0648 9.53131 13.5048 9.07131 13.5048 8.6313C13.5048 8.1813 13.1548 7.74131 12.6248 7.74131L8.16478 7.74131L8.16478 3.29131C8.16478 2.84131 7.81478 2.4013 7.28478 2.4013C6.83478 2.4013 6.39478 2.7513 6.39478 3.29131L6.39478 8.6413C6.39478 9.0813 6.74478 9.53131 7.28478 9.53131L12.6248 9.53131Z " /></g></g></g></svg>