<svg xmlns="http://www.w3.org/2000/svg" xmlns:xlink="http://www.w3.org/1999/xlink" width="20" height="20.000000001725766" viewBox="0 0 20 20.000000001725766" fill="none"><defs><rect id="path_0" x="0" y="0" width="20" height="20.00000000172561" /></defs><g opacity="1" transform="translate(0 0)  rotate(0 10 10.000000000862805)"><mask id="bg-mask-0" fill="white"><use xlink:href="#path_0"></use></mask><g mask="url(#bg-mask-0)" ><path id="矩形 1" fill-rule="evenodd" style="fill:#FFFFFF" transform="translate(8.881784197001252e-16 8.625011815865946e-10)  rotate(0 10 10)" opacity="1" d="M0,20L20,20L20,0L0,0L0,20Z " /><g opacity="1" transform="translate(1.999998039285856 2)  rotate(0 8.000001960714371 8.000000000862883)"><path id="路径 1" fill-rule="evenodd" style="fill:#4E95FF" transform="translate(5.634649687499859 3.393630579850651)  rotate(0 5.182677116964533 6.303184710937393)" opacity="1" d="M0.71,12.61L4.02,12.61C7.53,12.61 10.37,9.77 10.37,6.26L10.37,2.95C10.37,1.92 10.12,0.91 9.64,0C4.17,1.85 0.37,6.81 0,12.57C0.23,12.59 0.47,12.61 0.71,12.61Z " /><path id="路径 2" fill-rule="evenodd" style="fill:#9CDCFF" transform="translate(0 4.640000001725184)  rotate(0 5.092993632812501 5.680000000000196)" opacity="1" d="M0,1.7L0,5.02C0,8.52 2.84,11.36 6.34,11.36L9.66,11.36C9.84,11.36 10.01,11.35 10.19,11.34L10.19,11C10.19,5.32 5.88,0.57 0.23,0C0.08,0.55 0,1.13 0,1.7Z " /><path id="路径 3" fill-rule="evenodd" style="fill:#4EC5FF" transform="translate(0.20382165625005655 0)  rotate(0 7.5347770703125025 4.501910828987806)" opacity="1" d="M15.07 3.4C12.08 4.41 9.52 6.38 7.77 9C5.92 6.53 3.11 4.95 0.03 4.64C0.62 1.77 3.08 0 6.14 0L9.45 0C11.81 0 13.98 1.31 15.07 3.4ZM0.01 4.71C0.01 4.7 0.02 4.68 0.03 4.64L0 4.79C0.02 4.69 0.01 4.7 0.01 4.71ZM0.01 4.71C0.01 4.715 0.0075 4.7175 0.00625 4.7175C0.005 4.7175 0.005 4.715 0.01 4.71Z" /></g></g></g></svg>