<?xml version="1.0" encoding="UTF-8"?>
<svg width="128px" height="128px" viewBox="0 0 128 128" version="1.1" xmlns="http://www.w3.org/2000/svg" xmlns:xlink="http://www.w3.org/1999/xlink">
    <title>icon46</title>
    <defs>
        <linearGradient x1="78.9547002%" y1="5.73516338%" x2="8.08318957%" y2="95.0923082%" id="linearGradient-1">
            <stop stop-color="#8A76FA" offset="0%"></stop>
            <stop stop-color="#68BFF2" offset="100%"></stop>
        </linearGradient>
    </defs>
    <g id="icon46" stroke="none" stroke-width="1" fill="none" fill-rule="evenodd">
        <rect id="background" fill="url(#linearGradient-1)" x="0" y="0" width="128" height="128"></rect>
        <path d="M59.0502197,75.6066017 L27.9375213,106.7193 C26.3754241,108.281397 23.8427642,108.281397 22.280667,106.7193 C20.7185699,105.157203 20.7185699,102.624543 22.280667,101.062446 L53.3933654,69.9497475 L59.0502197,75.6066017 Z M78.6178363,19.2694819 L71.2176036,26.6698998 C58.9918943,24.3791313 45.882195,27.9634432 36.4228027,37.4228355 C26.6595696,47.1860686 23.1548999,60.8378744 25.9087935,73.3928391 L37.1299094,62.1715729 L42.7867637,67.8284271 L22.280667,88.3345238 C22.228822,88.3863688 22.1778374,88.4387483 22.1277131,88.4916447 C11.8548016,70.2047323 14.4985613,46.6191549 30.0588416,31.0588745 C43.1971391,17.9205771 62.0568648,13.9907796 78.6178363,19.2694819 Z M109.378567,49.3210686 C115.17333,66.1324519 111.360838,85.5213799 97.9410926,98.9411255 C82.6398965,114.242322 59.5784266,117.053546 41.4257061,107.374797 L61.8786468,86.9203102 L67.535501,92.5771645 L56.7840871,103.330429 C69.0092956,105.620525 82.1181923,102.036104 91.5771316,92.5771645 C101.340178,82.8141186 104.8449,69.162649 102.091299,56.6078829 L109.378567,49.3210686 Z M102.45057,25.8422899 C105.819772,29.2114915 105.20791,34.1010652 102.949428,39.3376218 L102.664808,39.9804872 L102.664808,39.9804872 L102.364681,40.6263423 L102.364681,40.6263423 L102.05,41.2747083 C101.996393,41.3829519 101.94222,41.4912802 101.887499,41.5996832 L101.552772,42.2509179 L101.552772,42.2509179 L101.205871,42.9034667 L101.205871,42.9034667 L100.84775,43.5568509 L100.84775,43.5568509 L100.47936,44.2105916 L100.47936,44.2105916 L99.9515268,45.1198369 L99.6816492,45.573968 L99.6816492,45.573968 L99.1315754,46.4804412 L98.8520205,46.932461 L98.8520205,46.932461 L98.2854776,47.8332612 L97.9991309,48.2817192 L97.9991309,48.2817192 L97.4218904,49.1739453 L96.5494712,50.4981421 L95.676877,51.8015003 L93.4149412,55.142151 L92.3578945,56.719516 L91.8568292,57.4804458 L91.2613497,58.4030214 L91.2613497,58.4030214 L90.7048263,59.2914835 L90.4942469,59.6367526 L90.4942469,59.6367526 L90.0954742,60.3090628 C89.1374562,61.958653 88.4793057,63.3703226 88.3013809,64.4534162 C86.8208377,73.4660214 81.611205,82.7441012 76.0823695,88.2729367 L75.7471701,86.5061318 L75.5845505,85.7062277 L75.4049851,84.8809844 L75.2046188,84.0305969 L74.9795968,83.1552604 L74.8139807,82.5579386 L74.5874012,81.7959032 L74.5874012,81.7959032 L74.337007,81.016881 L74.2296815,80.7005411 L74.2296815,80.7005411 L74.0019574,80.0597906 L74.0019574,80.0597906 L73.7558508,79.4083276 C72.0939398,75.1391273 69.1946481,70.194681 63.6464137,64.6464466 C58.8094914,59.8095243 54.6065567,57.1609608 50.8298215,55.5103384 L50.1677207,55.2291691 L49.5142146,54.9672644 C49.405999,54.9251383 49.298131,54.8837543 49.1906053,54.8430821 L48.5495154,54.6073486 L47.9163858,54.3872453 L47.9163858,54.3872453 L46.9810617,54.0832169 L46.9810617,54.0832169 L46.3667226,53.8958288 L45.4583948,53.6340584 L44.5651228,53.3911008 L41.1254638,52.5092665 L40.5704265,52.3618767 L40.0199237,52.2104909 C45.0652749,47.1651396 54.2561314,41.362289 62.5300866,39.4047159 L63.1194557,39.271491 C64.2136589,39.0358437 65.5848717,38.415462 67.1603355,37.5489405 L67.8478273,37.1629085 L68.5590567,36.7491613 L69.4795354,36.1966963 L69.4795354,36.1966963 L70.4326296,35.6094496 L71.2169176,35.1177915 L73.2536483,33.8204262 L75.3830562,32.4559087 L76.6969132,31.6207237 L78.0326793,30.7831835 L78.9332406,30.2275556 L79.8403573,29.6769419 L80.7527569,29.1337668 L81.6691664,28.6004548 L81.6691664,28.6004548 L82.5883133,28.0794302 L83.2717281,27.70199 L83.2717281,27.70199 L83.9554294,27.333651 C84.0693746,27.2730747 84.18331,27.212919 84.2972247,27.1532045 L84.9803791,26.8003775 C85.0941679,26.7425106 85.2079145,26.6851262 85.3216079,26.628245 L86.0030434,26.2931623 L86.0030434,26.2931623 L86.682682,25.9711491 L86.682682,25.9711491 L87.3600029,25.6631977 C87.4726677,25.6130994 87.5852141,25.5636283 87.6976314,25.5148052 L88.3704991,25.2298066 C93.8515132,22.9685143 98.9703938,22.3621133 102.45057,25.8422899 Z M86.6273841,40.9583694 C83.8937141,38.2246994 79.4615592,38.2246994 76.7278892,40.9583694 C73.9942191,43.6920395 73.9942191,48.1241943 76.7278892,50.8578644 C79.4615592,53.5915344 83.8937141,53.5915344 86.6273841,50.8578644 C89.3610542,48.1241943 89.3610542,43.6920395 86.6273841,40.9583694 Z" id="形状" fill="#FFFFFF"></path>
    </g>
</svg>