<svg xmlns="http://www.w3.org/2000/svg" xmlns:xlink="http://www.w3.org/1999/xlink" width="30" height="30" viewBox="0 0 30 30" fill="none"><defs><rect id="path_0" x="0" y="0" width="30" height="30" /><rect id="path_1" x="0" y="0" width="22" height="22" /></defs><g opacity="1" transform="translate(0 0)  rotate(0 15 15)"><mask id="bg-mask" fill="white"><use xlink:href="#path_0"></use></mask><g mask="url(#bg-mask)" ><path id="矩形 1" fill-rule="evenodd" style="fill:#9C9C9C" transform="translate(0 0)  rotate(0 15 15)" opacity="1" d="M30,30L30,0L0,0L0,30L30,30Z " /><g opacity="1" transform="translate(4 4)  rotate(0 11 11)"><mask id="bg-mask" fill="white"><use xlink:href="#path_1"></use></mask><g mask="url(#bg-mask)" ><path id="分组 1" fill-rule="evenodd" style="fill:#FFFFFF" transform="translate(2.795831231532828 2.5666666738281254)  rotate(0 8.203453156975431 8.309812499999998)" opacity="1" d="M0 14.22C0.05 15.56 1.15 16.62 2.5 16.62L4.59 16.62L4.65 16.62C5.06 16.59 5.39 16.24 5.39 15.82C5.39 15.81 5.39 15.8 5.39 15.8L5.39 15.71C5.44 14.77 6.23 14.04 7.17 14.06C8.11 14.09 8.86 14.86 8.86 15.8L8.86 15.8L8.86 15.82C8.86 16.26 9.22 16.62 9.66 16.62L11.8 16.62L11.89 16.62C13.23 16.57 14.29 15.47 14.29 14.12L14.29 12.28C15.55 11.92 16.41 10.77 16.41 9.47C16.41 8.17 15.55 7.03 14.29 6.67L14.29 4.82L14.29 4.73C14.24 3.39 13.14 2.33 11.8 2.33L10.22 2.33C9.93 0.97 8.74 0 7.36 0C5.97 0 4.78 0.97 4.5 2.33L2.5 2.33L2.4 2.33C1.06 2.38 0 3.48 0 4.82L0 6.94C0 7.15 0.08 7.35 0.23 7.5C0.39 7.66 0.59 7.74 0.8 7.74L0.83 7.74L0.89 7.74C1.83 7.79 2.56 8.58 2.53 9.52C2.51 10.46 1.74 11.21 0.8 11.21C0.65 11.21 0.5 11.25 0.37 11.33C0.14 11.48 0 11.74 0 12.01L0 14.12L0 14.22Z M6.01692 3.15177C6.01692 3.14177 6.01692 3.14177 6.01692 3.13177L6.01692 3.15177C6.01692 3.15177 6.01692 3.15177 6.01692 3.15177Z M10.3769 15.0118L11.7969 15.0118C12.2669 15.0118 12.6469 14.6518 12.6869 14.1918L12.6869 14.1218L12.6869 11.5818L12.6869 11.5518L12.6869 11.5218C12.6969 11.4818 12.6969 11.4518 12.7069 11.4118L12.6969 11.4318C12.7369 11.2318 12.8569 11.0518 13.0269 10.9318C13.1469 10.8518 13.2869 10.8018 13.4269 10.7818L13.4869 10.7818C14.2069 10.7818 14.7869 10.2218 14.8069 9.51177C14.8269 8.80177 14.2769 8.20177 13.5669 8.16177L13.4869 8.16177C13.4469 8.16177 13.3969 8.16177 13.3569 8.15177L13.3569 8.15177L13.3169 8.14177C13.1069 8.10177 12.9269 7.97177 12.8069 7.78177C12.7369 7.67177 12.6969 7.55177 12.6869 7.42177L12.6869 7.36177L12.6869 4.82177C12.6869 4.35177 12.3269 3.97177 11.8669 3.93177L11.7969 3.93177L9.50692 3.93177C9.06692 3.93177 8.71692 3.58177 8.70692 3.15177C8.68692 3.09177 8.67692 3.04177 8.66692 2.98177L8.66692 2.92177C8.67692 2.20177 8.10692 1.62177 7.39692 1.60177C6.68692 1.58177 6.08692 2.13177 6.04692 2.84177L6.04692 2.92177C6.04692 3.00177 6.03692 3.08177 6.01692 3.15177C5.99692 3.56177 5.67692 3.90177 5.26692 3.93177L5.20692 3.93177L2.49692 3.93177C2.02692 3.93177 1.64692 4.29177 1.60692 4.76177L1.60692 4.82177L1.60692 6.23177C3.09692 6.60177 4.14692 7.94177 4.14692 9.47177C4.14692 11.0118 3.09692 12.3418 1.60692 12.7118L1.60692 14.1218C1.60692 14.5918 1.96692 14.9818 2.43692 15.0118L2.49692 15.0118L3.87692 15.0118C4.23692 13.5118 5.58692 12.4518 7.12692 12.4518C8.66692 12.4518 10.0169 13.5118 10.3769 15.0118Z M12.6969 11.4418L12.6969 11.4318C12.6969 11.4418 12.6969 11.4418 12.6969 11.4418Z " /></g></g></g></g></svg>