<svg xmlns="http://www.w3.org/2000/svg" xmlns:xlink="http://www.w3.org/1999/xlink" width="16" height="16" viewBox="0 0 16 16" fill="none"><defs><rect id="path_0" x="0" y="0" width="15.999999999999998" height="16" /></defs><g opacity="1" transform="translate(0 0)  rotate(0 7.999999999999999 8)"><mask id="bg-mask-0" fill="white"><use xlink:href="#path_0"></use></mask><g mask="url(#bg-mask-0)" ><path id="路径 1" fill-rule="evenodd" style="fill:#F2E433" transform="translate(0 0)  rotate(0 7.999999999999999 8)" opacity="1" d="M0,16L16,16L16,0L0,0L0,16Z " /><path id="分组 1" fill-rule="evenodd" style="fill:#000000" transform="translate(2.157750160963558 5.203701923076921)  rotate(0 5.842249839036444 2.796298076923075)" opacity="1" d="M2.9 2.36562L0.73 2.36562L0.73 0.675625L3.1 0.675625L3.1 0.065625L0 0.065625L0 5.52563L3.25 5.52563L3.26 5.52563L3.26 4.91563L0.73 4.91563L0.73 2.96563L2.9 2.96563L2.9 2.36562Z M6.35563 3.46C6.55562 3.65 6.64563 3.84 6.64563 4.05C6.64563 4.31 6.56563 4.53 6.40563 4.71C6.24563 4.89 5.99563 4.98 5.65563 4.98C5.40563 4.98 5.17562 4.9 4.98563 4.73C4.79563 4.56 4.69563 4.31 4.69563 3.99L4.69563 3.8L3.96563 3.8L3.96563 4.02C3.96563 4.47 4.11562 4.84 4.41563 5.14C4.71562 5.44 5.12563 5.59 5.65563 5.59C6.18563 5.59 6.60563 5.44 6.91563 5.16C7.22563 4.87 7.38562 4.48 7.38562 3.99C7.38562 3.65 7.25562 3.35 6.99563 3.08C6.74563 2.81 6.37563 2.59 5.91563 2.39C5.42562 2.2 5.11562 2.04 5.00562 1.9C4.88562 1.76 4.82562 1.6 4.82562 1.4C4.82562 1.17 4.90562 0.98 5.04563 0.85C5.19563 0.71 5.40563 0.64 5.65563 0.64C5.93563 0.64 6.14563 0.73 6.29562 0.93C6.44563 1.12 6.50562 1.33 6.48563 1.56L7.22563 1.56C7.22563 1.18 7.09562 0.83 6.85563 0.5C6.60563 0.17 6.21562 0 5.65563 0C5.23563 0 4.86562 0.14 4.55562 0.42C4.24563 0.69 4.09562 1.05 4.09562 1.5C4.09562 1.82 4.20563 2.1 4.42562 2.33C4.65562 2.56 5.01562 2.78 5.52563 2.97C5.88562 3.12 6.16563 3.28 6.35563 3.46Z M10.0398 0.003125L8.72978 2.04312C8.53978 2.36312 8.39978 2.63313 8.29978 2.84312C8.19978 3.05312 8.14978 3.31312 8.12978 3.62312C8.09978 3.93313 8.14978 4.25313 8.26978 4.58313C8.37978 4.91313 8.59978 5.17313 8.89978 5.35313C9.20978 5.53313 9.58978 5.61313 10.0198 5.59313C10.4598 5.56313 10.7998 5.44313 11.0398 5.22312C11.2898 5.00313 11.4598 4.75313 11.5498 4.47312C11.6498 4.19313 11.6898 3.91313 11.6798 3.62312C11.6698 3.34312 11.6098 3.07312 11.4898 2.83312C11.3698 2.58312 11.1498 2.36312 10.7998 2.17313C10.4598 1.98312 10.0098 1.96312 9.42978 2.11312L10.7698 0.003125L10.0398 0.003125Z M9.88008 5.01212C10.2001 5.03212 10.4601 4.93212 10.6801 4.69212C10.8901 4.46212 11.0001 4.12212 11.0001 3.67212C11.0001 3.22212 10.8601 2.92212 10.6001 2.74212C10.3301 2.57212 10.0301 2.51212 9.70008 2.55212C9.37008 2.59212 9.14008 2.76212 8.99008 3.03212C8.84008 3.31212 8.77008 3.60212 8.79008 3.91212C8.82008 4.22212 8.92008 4.47212 9.11008 4.68212C9.31008 4.88212 9.56008 4.99212 9.88008 5.01212Z " /></g></g></svg>