<?xml version="1.0" encoding="UTF-8"?>
<svg width="128px" height="128px" viewBox="0 0 128 128" version="1.1" xmlns="http://www.w3.org/2000/svg" xmlns:xlink="http://www.w3.org/1999/xlink">
    <title>iqiyi</title>
    <defs>
        <linearGradient x1="50%" y1="0%" x2="50%" y2="100%" id="linearGradient-1">
            <stop stop-color="#07DD00" offset="0%"></stop>
            <stop stop-color="#05BC00" offset="100%"></stop>
        </linearGradient>
    </defs>
    <g id="iqiyi" stroke="none" stroke-width="1" fill="none" fill-rule="evenodd">
        <rect id="矩形" fill="url(#linearGradient-1)" x="0" y="0" width="128" height="128"></rect>
        <path d="M25,86.9997562 L25,87.3305205 C25,89.1686633 26.252757,90.7702044 28.0368108,91.2128231 C31.397648,92.0466349 35.1876092,92.7283091 39.402573,93.2546942 L40.8232961,93.4244001 C42.4991576,93.6156702 44.2392248,93.7834023 46.0432555,93.927411 L47.6052264,94.0450329 L49.1984924,94.1510092 L50.8230196,94.245314 C51.0963773,94.2600574 51.3710362,94.2743134 51.6469955,94.2880814 L53.3183509,94.3648303 C53.8806673,94.3884587 54.4481798,94.410131 55.0208826,94.4298429 L56.7545569,94.4830931 C57.3376349,94.49888 57.9258977,94.5127021 58.5193396,94.5245552 L60.315197,94.554203 L62.1420951,94.5720107 L63.0671738,94.5764664 L63.0671738,94.5764664 L64,94.5779524 C64.6244656,94.5779524 65.243769,94.5759704 65.8579046,94.5720107 L67.6848025,94.554203 L69.4806596,94.5245552 C70.0741014,94.5127021 70.6623642,94.49888 71.2454421,94.4830932 L72.9791161,94.4298429 C73.5518189,94.410131 74.1193313,94.3884587 74.6816477,94.3648304 L76.3530028,94.2880815 L77.1769787,94.2453141 L77.1769787,94.2453141 L78.8015057,94.1510093 L80.3947715,94.045033 L81.9567422,93.9274112 C83.7607727,93.7834026 85.5008397,93.6156705 87.176701,93.4244004 L88.597424,93.2546946 C92.8123874,92.7283096 96.6023483,92.0466356 99.9631854,91.212824 C101.681167,90.786599 102.906475,89.2857082 102.994881,87.5337385 L103,87.3305208 L103,86.9997562 L111,86.9997562 L111,87.3305208 C111,92.8449529 107.24173,97.6495745 101.889556,98.9774294 C97.1549496,100.152068 91.7127461,101.039295 85.5629454,101.639111 L83.9425982,101.789065 L83.120386,101.859152 L83.120386,101.859152 L81.4518848,101.989546 C77.521262,102.278588 73.328467,102.46114 68.8735,102.537204 L66.948177,102.563283 C66.3010522,102.569803 65.648577,102.574149 64.9907513,102.576322 L64,102.577952 C63.0052357,102.577952 62.0225099,102.573063 61.0518226,102.563283 L59.1264993,102.537204 C54.6715316,102.46114 50.4787362,102.278588 46.5481129,101.989546 L44.8796114,101.859152 L44.0573992,101.789064 L44.0573992,101.789064 L42.4370518,101.63911 C36.2872504,101.039295 30.8450464,100.152067 26.1104398,98.9774284 C20.7582693,97.64957 17,92.8449504 17,87.3305205 L17,86.9997562 L25,86.9997562 Z M48,43 C51.3137085,43 54,45.6862915 54,49 L54,78 C54,80.6306327 52.3070468,82.8658549 49.9512124,83.6755948 C50.0166111,83.6941827 50.0869469,83.7065574 50.1622607,83.7127419 L50.27897,83.7173788 L54.7339029,83.7173788 L54.7339029,87.9903912 L49.3613919,87.9903912 C46.8762988,87.9903912 46.1645753,86.3028066 46.0272109,84.0005499 L38,84 C34.6862915,84 32,81.3137085 32,78 L32,49 C32,45.6862915 34.6862915,43 38,43 L48,43 Z M25,55.9997562 L25,83.9997562 L17,83.9997562 L17,55.9997562 L25,55.9997562 Z M111,43.9997562 L111,83.9997562 L103,83.9997562 L103,43.9997562 L111,43.9997562 Z M68,44 L68,83 L60,83 L60,44 L68,44 Z M81,44 L85.6764177,58.0607469 L89.9097144,44.4325347 L98.2556807,44.4325347 L89.9097144,68.9749155 L89.9097144,83 L81,83 L81,68.4025861 L72.7608288,44 L81,44 Z M44,47 L42,47 C40.9456382,47 40.0818349,47.8158778 40.0054857,48.8507377 L40,49 L40,77 C40,78.0543618 40.8158778,78.9181651 41.8507377,78.9945143 L42,79 L44,79 C45.0543618,79 45.9181651,78.1841222 45.9945143,77.1492623 L46,77 L46,49 C46,47.8954305 45.1045695,47 44,47 Z M25,43.9997562 L25,52.9997562 L17,52.9997562 L17,43.9997562 L25,43.9997562 Z M65.0171262,25.6107562 L67.0271956,25.6247483 C80.9848274,25.7716657 92.5725274,26.9470044 101.790295,29.1507646 C107.190662,30.4418724 111,35.2692921 111,40.8218513 L111,40.9997562 L103,40.9997562 L103,40.8218513 C103,38.9709985 101.73022,37.3618579 99.9300999,36.9314891 C95.7328696,35.9280261 90.951346,35.148323 85.5914607,34.5972111 L84.0443323,34.4459749 L82.4657592,34.3072041 C81.6686165,34.2409392 80.8596937,34.1793583 80.0390079,34.1224753 L78.3819574,34.0149775 L77.5416789,33.9659344 L77.5416789,33.9659344 L75.8376343,33.8772755 L74.9738759,33.837666 L74.9738759,33.837666 L73.2229064,33.7679023 C72.3396078,33.7361755 71.4445924,33.7091842 70.5378774,33.6869425 L68.7088533,33.6487962 C67.4791111,33.6275928 66.2285902,33.6148499 64.9573316,33.6106008 L64,33.6090072 C62.397969,33.6090072 60.8283246,33.6222919 59.291147,33.6487962 L57.4621229,33.6869425 C56.555408,33.7091841 55.6603927,33.7361755 54.7770942,33.7679023 L53.0261247,33.8376659 L52.1623664,33.8772755 L52.1623664,33.8772755 L50.4583219,33.9659343 L49.6180434,34.0149774 L49.6180434,34.0149774 L47.960993,34.1224752 C47.1403072,34.1793582 46.3313844,34.2409392 45.5342418,34.307204 L43.9556688,34.4459748 L42.4085405,34.597211 C37.0486554,35.1483228 32.267132,35.9280258 28.0699017,36.9314887 C26.3364496,37.3459179 25.0947843,38.8534188 25.0051878,40.6172451 L25,40.8218535 L25,40.9997562 L17,40.9997562 L17,40.8218535 C17,35.269292 20.8093375,30.4418703 26.2097064,29.1507642 C35.4274742,26.9470043 47.0151736,25.7716656 60.9728046,25.6247483 L62.9828739,25.6107562 L65.0171262,25.6107562 Z" id="形状" fill="#FFFFFF" fill-rule="nonzero"></path>
    </g>
</svg>