<svg xmlns="http://www.w3.org/2000/svg" xmlns:xlink="http://www.w3.org/1999/xlink" width="32" height="32" viewBox="0 0 32 32" fill="none"><defs><rect id="path_0" x="0" y="0" width="32" height="32" /></defs><g opacity="1" transform="translate(0 0)  rotate(0 16 16)"><mask id="bg-mask-0" fill="white"><use xlink:href="#path_0"></use></mask><g mask="url(#bg-mask-0)" ><path id="路径 1" fill-rule="evenodd" style="fill:#FFFFFF" transform="translate(0 0)  rotate(0 16 16)" opacity="1" d="M0,32L32,32L32,0L0,0L0,32Z " /><path id="路径 2" fill-rule="evenodd" style="fill:#000000" transform="translate(10.172999999999998 18.5416875)  rotate(0 4.062499999999999 4.0625)" opacity="1" d="M0,8C0,8.07 0.06,8.13 0.13,8.13L8,8.13C8.07,8.13 8.12,8.07 8.12,8L8.12,0.13C8.12,0.06 8.07,0 8,0L0.13,0C0.06,0 0,0.06 0,0.13L0,8Z " /><path id="路径 3" fill-rule="evenodd" style="fill:#000000" transform="translate(14.592749999999999 14.3775625)  rotate(0 0.3821874999999997 0.9904687499999998)" opacity="1" d="M0.44,0L0,0L0,1.98L0.76,1.98L0.76,1.54L0.44,1.54L0.44,0Z " /><path id="路径 4" fill-rule="evenodd" style="fill:#000000" transform="translate(13.2545 14.645812500000002)  rotate(0 0.3821874999999997 0.6597499999999998)" opacity="1" d="M0.44,0L0,0L0,1.32L0.76,1.32L0.76,0.88L0.44,0.88L0.44,0Z " /><path id="分组 1" fill-rule="evenodd" style="fill:#000000" transform="translate(11.06625 5.770812312037689)  rotate(0 1.9912187499999998 0.8201760337934281)" opacity="1" d="M1.63 0.03C1.48 0.09 1.41 0.21 1.38 0.31C1.35 0.41 1.34 0.51 1.34 0.61C1.34 0.66 1.34 0.71 1.34 0.76C1.04 0.53 0.67 0.32 0.14 0.16L0 0.64C0.75 0.87 1.13 1.19 1.46 1.56C1.53 1.63 1.64 1.66 1.74 1.62C1.83 1.59 1.9 1.49 1.9 1.39C1.9 1.29 1.88 1.16 1.87 1.03C1.86 0.97 1.86 0.92 1.85 0.87C1.84 0.77 1.84 0.69 1.84 0.62C1.84 0.58 1.84 0.56 1.84 0.53C1.97 0.6 2.19 0.78 2.54 1.16C2.61 1.24 2.72 1.27 2.82 1.23C2.91 1.19 2.98 1.1 2.98 0.99C2.98 0.77 3.01 0.62 3.05 0.55C3.07 0.52 3.08 0.51 3.08 0.5C3.1 0.51 3.15 0.53 3.22 0.63C3.31 0.74 3.42 0.93 3.51 1.21L3.98 1.05C3.88 0.74 3.75 0.49 3.62 0.32C3.49 0.15 3.31 0.01 3.1 0C2.87 -0.01 2.7 0.14 2.61 0.32C2.59 0.36 2.57 0.41 2.55 0.46C2.34 0.26 2.17 0.13 2.02 0.06C1.91 0.01 1.77 -0.02 1.63 0.03Z M3.08631 0.5066C3.09631 0.5066 3.09631 0.4966 3.09631 0.4966C3.09631 0.4966 3.09631 0.4966 3.08631 0.5066Z M1.85806 0.467875C1.86806 0.457875 1.86806 0.457875 1.86806 0.457875C1.86806 0.457875 1.86806 0.457875 1.85806 0.467875Z M1.77281 0.503663C1.77281 0.503663 1.77281 0.513663 1.78281 0.513663C1.77281 0.503663 1.77281 0.503663 1.77281 0.503663Z " /><path id="路径 9" fill-rule="evenodd" style="fill:#000000" transform="translate(17.7930625 8.254125)  rotate(0 0.995687499999999 1.11846875)" opacity="1" d="M1.99,0.11L1.57,0C1.46,0.44 1.2,0.9 0.89,1.25C0.57,1.61 0.25,1.8 0,1.8L0,2.24C0.44,2.24 0.88,1.92 1.22,1.54C1.57,1.14 1.86,0.62 1.99,0.11Z " /><path id="路径 10" fill-rule="evenodd" style="fill:#FFC408" transform="translate(10.173937500000001 6.642624999999999)  rotate(0 4.062500000000001 4.0625)" opacity="1" d="M4.06 0C1.82 0 0 1.82 0 4.06C0 6.31 1.82 8.13 4.06 8.13C6.31 8.13 8.13 6.31 8.13 4.06C8.13 1.82 6.31 0 4.06 0Z" /><path id="分组 2" fill-rule="evenodd" style="fill:#000000" transform="translate(10.173937500000001 6.642624999999999)  rotate(0 4.062500000000001 4.0625)" opacity="1" d="M4.065 7.505C5.965 7.505 7.505 5.965 7.505 4.065C7.505 2.165 5.965 0.625 4.065 0.625C2.165 0.625 0.625 2.165 0.625 4.065C0.625 5.965 2.165 7.505 4.065 7.505Z M0 4.06C0 6.31 1.82 8.13 4.06 8.13C6.31 8.13 8.13 6.31 8.13 4.06C8.13 1.82 6.31 0 4.06 0C1.82 0 0 1.82 0 4.06Z " /><path id="路径 13" fill-rule="evenodd" style="fill:#000000" transform="translate(8.313625 8.266750000000002)  rotate(0 1.4000000000000004 1.3559687499999997)" opacity="1" d="M2.8,2.71L2.8,2.27C2.03,2.27 1.49,2.01 1.12,1.6C0.74,1.19 0.52,0.62 0.43,0L0,0.06C0.09,0.74 0.34,1.41 0.8,1.9C1.26,2.4 1.92,2.71 2.8,2.71Z " /><path id="路径 14" fill-rule="evenodd" style="fill:#000000" transform="translate(12.437999999999999 10.0354375)  rotate(0 2.306499999999999 0.6404375)" opacity="1" d="M2.26,0.78C1.48,0.78 0.8,0.5 0.34,0.08L0,0.45C0.56,0.96 1.37,1.28 2.26,1.28C3.2,1.28 4.05,0.92 4.61,0.35L4.25,0C3.8,0.47 3.08,0.78 2.26,0.78Z " /><path id="路径 15" fill-rule="evenodd" style="fill:#000000" transform="translate(15.1519375 8.7749375)  rotate(0 0.3125 0.53125)" opacity="1" d="M0.63,0L0,0L0,1.06L0.63,1.06L0.63,0Z " /><path id="路径 16" fill-rule="evenodd" style="fill:#000000" transform="translate(13.7454375 8.775)  rotate(0 0.3125 0.53125)" opacity="1" d="M0.63,0L0,0L0,1.06L0.63,1.06L0.63,0Z " /><path id="路径 17" fill-rule="evenodd" style="fill:#000000" transform="translate(19.63931600858008 18.66665625)  rotate(0 4.599656894579919 4.000015625)" opacity="1" d="M0.02,7.81C-0.03,7.9 0.03,8 0.13,8L9.07,8C9.17,8 9.23,7.9 9.18,7.81L4.71,0.06C4.66,-0.02 4.54,-0.02 4.49,0.06L0.02,7.81Z " /><path id="路径 18" fill-rule="evenodd" style="fill:#000000" transform="translate(3.161378737411147 18.5416875)  rotate(0 2.835156780164389 4.0625)" opacity="1" d="M1.11,8.06L5.65,0.19C5.7,0.1 5.64,0 5.55,0L4.67,0C4.63,0 4.59,0.02 4.56,0.06L0.02,7.94C-0.03,8.02 0.03,8.13 0.13,8.13L1,8.13C1.04,8.13 1.08,8.1 1.11,8.06Z " /></g></g></svg>