<?xml version="1.0" encoding="UTF-8"?>
<svg width="128px" height="128px" viewBox="0 0 128 128" version="1.1" xmlns="http://www.w3.org/2000/svg" xmlns:xlink="http://www.w3.org/1999/xlink">
    <title>画板备份</title>
    <defs>
        <linearGradient x1="50.3577204%" y1="1.24983148%" x2="50.3577204%" y2="101.289654%" id="linearGradient-1">
            <stop stop-color="#E09F1F" offset="0%"></stop>
            <stop stop-color="#D93D24" offset="50%"></stop>
            <stop stop-color="#D93D24" offset="100%"></stop>
        </linearGradient>
    </defs>
    <g id="画板备份" stroke="none" stroke-width="1" fill="none" fill-rule="evenodd">
        <rect fill="#FFFFFF" x="0" y="0" width="128" height="128"></rect>
        <path d="M29.8309998,17.6284311 L28.4592782,19.0824916 L27,20.5365521 L27,65.1035067 L28.7803195,67.4881659 C29.7580359,68.7968204 30.6190101,69.7855815 30.7211595,69.6837973 C30.823309,69.5820131 56.4920134,25.8293323 60.6947348,18.6171922 L61.2930388,17.5702686 L29.8309998,17.6284311 Z M99.6136857,19.0824916 L98.1544074,17.6284311 L66.6923684,17.6284311 L67.3052652,18.6753546 C72.0041412,26.7599311 97.1620982,69.5674724 97.2788405,69.7419597 C98.0433074,69.1221849 98.6991755,68.3802152 99.2196805,67.5463283 L101,65.1616691 L101,20.5947145 L99.6136857,19.0824916 Z M59.8629462,95.8568865 C53.5685772,95.7645351 48.5411173,90.6053199 48.6338,84.3334569 C48.7264828,78.0615939 53.9042112,73.0521099 60.1985802,73.1444613 C60.4659235,73.1302164 60.7338398,73.1302164 61.0011832,73.1444613 C62.3721604,69.5090974 65.1673033,66.5852062 68.744809,65.0441529 C72.3223147,63.5030995 76.3748149,63.4772867 79.9718004,64.9726412 C78.8189706,62.9951189 77.5785841,60.8867312 76.2944192,58.7201811 L63.8759613,37.6653849 L63.3798067,38.4796588 C61.2054822,42.042107 39.8270558,80.1384924 39.8124345,80.4583857 C39.7978702,80.778279 45.3869059,87.5832822 52.2163281,95.7551022 C62.4312759,107.998292 64.6785644,110.586519 64.9412345,110.295707 C65.2039046,110.004895 70.7783475,103.025405 76.3527904,95.7551022 L59.8629462,95.7551022 L59.8629462,95.8568865 Z M86.5385526,76.2416102 L85.838099,76.4451787 L85.4586866,76.5905847 L85.0792743,76.765072 C82.7852719,77.8211676 81.0763093,79.8326617 80.4095839,82.2614207 C81.4692438,83.060561 81.8532989,84.4721071 81.3438316,85.6951298 C80.8343642,86.9181525 79.5600293,87.6438042 78.2439005,87.4603409 C76.9277717,87.2768776 75.9022087,86.230629 75.7491289,84.9152497 C75.5960491,83.5998704 76.3541094,82.3475309 77.5931769,81.8688244 C78.4527938,78.3414399 80.9449254,75.4317529 84.3058568,74.0314382 L84.6852692,73.8860322 L85.0646815,73.7551667 L85.0646815,73.7551667 L83.7513311,71.5159135 C81.5900553,68.5304709 78.1208713,66.7615085 74.4265431,66.7611357 C69.274501,66.797801 64.7557602,70.1954199 63.3068428,75.1219836 L62.9712088,76.3433944 L61.7016368,76.1252853 C61.219961,76.0375492 60.731932,75.9889208 60.2423585,75.9798793 C55.6252961,76.0568661 51.8973867,79.7609144 51.8070148,84.361231 C51.7166429,88.9615476 55.2962226,92.8081247 59.9067245,93.0650903 L60.3007296,93.0650903 C61.1621247,93.0624014 62.0181678,92.9300421 62.8398738,92.6724939 C63.189508,92.5607503 63.5308441,92.424704 63.8613686,92.265357 C66.14406,91.2058041 67.845603,89.2020799 68.5164662,86.7835489 C67.4613931,85.9787651 67.0850391,84.565453 67.6008951,83.3453292 C68.1167511,82.1252054 69.394594,81.4062787 70.7095537,81.5963679 C72.0245135,81.7864571 73.0446407,82.8375761 73.1912573,84.1534663 C73.3378739,85.4693565 72.5739679,86.7178337 71.3328732,87.1906858 C70.8718055,89.0923505 69.9212075,90.8414112 68.5748373,92.265357 C68.4549198,92.4115973 68.323141,92.5477681 68.1808322,92.6724939 C68.0452931,92.8144228 67.8989278,92.9456806 67.7430487,93.0650903 L78.5708933,93.0650903 C83.8826661,86.2600871 88.7858411,79.9785457 88.7858411,79.9785457 C88.7858411,79.9785457 87.8956813,78.5826476 86.5385526,76.2706914 L86.5385526,76.2416102 Z" id="id__45621333" fill="url(#linearGradient-1)"></path>
    </g>
</svg>