<svg xmlns="http://www.w3.org/2000/svg" xmlns:xlink="http://www.w3.org/1999/xlink" width="18" height="18" viewBox="0 0 18 18" fill="none"><defs><rect id="path_0" x="0" y="0" width="18" height="18" /><path id="path_1"
        transform="translate(0 0) rotate(0 9 9)"
        d="M0,18L18,18L18,0L0,0L0,18Z" /></defs><g opacity="1" transform="translate(0 0)  rotate(0 9 9)"><mask id="bg-mask-0" fill="white"><use xlink:href="#path_0"></use></mask><g mask="url(#bg-mask-0)" ><g opacity="1" transform="translate(0 0)  rotate(0 9 9)"><g opacity="1" transform="translate(0 0)  rotate(0 9 9)"><mask id="mask-1" fill="white"><use xlink:href="#path_1"></use></mask><g mask="url(#mask-1)"></g><g mask="url(#mask-1)"><g opacity="1" transform="translate(0 0)  rotate(0 9 9)"><path id="矩形 1" fill-rule="evenodd" style="fill:#FFEB33" transform="translate(0 0)  rotate(0 9 9)" opacity="1" d="M18,18L18,0L0,0L0,18L18,18Z " /><path id="分组 1" fill-rule="evenodd" style="fill:#ED1B2A" transform="translate(2.2996879996230133 2.779477671608212)  rotate(0 7.704818953058614 6.225261164195893)" opacity="1" d="M0.6 4.95C-0.48 6.23 -0.12 7.17 1.82 8.12L2.32 8.36L1.78 8.36C1.32 8.36 1.21 8.34 1.13 8.19C0.9 7.78 0.51 8.15 0.64 8.66C0.74 9.05 1 9.22 1.52 9.22C2.71 9.22 3.54 9.86 3.12 10.47C2.84 10.86 2.84 10.94 3.09 11.28C3.2 11.43 3.28 11.6 3.27 11.67C3.23 11.83 3.41 11.94 3.71 11.94C4.19 11.94 4.62 11.6 4.4 11.39C4.22 11.22 4.3 10.92 4.54 10.86C5.41 10.65 7.57 11.5 7.57 12.06C7.57 12.33 7.8 12.45 8.32 12.45C8.87 12.45 8.9 12.3 8.5 11.72C8.13 11.18 8.13 11.17 8.37 11.17C8.83 11.17 9.23 10.67 9.07 10.28C9.02 10.15 8.98 10.05 8.98 10.03C8.98 10.02 9.1 10.02 9.25 10.05C9.58 10.09 9.86 9.87 9.86 9.56C9.86 9.22 9.72 9.12 9.39 9.26C9.24 9.32 9.03 9.33 8.94 9.3C8.8 9.26 8.87 9.22 9.22 9.14C10.78 8.77 11.41 7.82 11.38 5.9C11.35 3.93 12.23 2.94 14.65 2.18C15.53 1.91 15.51 1.93 15.26 1.72C14.72 1.31 13.07 1.16 10.93 1.34C8.62 1.53 7.83 1.57 7.83 1.49C7.83 1.46 8.05 1.16 8.33 0.85C9.17 -0.14 8.48 -0.26 6.04 0.46C3.12 1.31 1.81 2.23 1.31 3.8C1.19 4.17 0.98 4.5 0.6 4.95Z M0.872041 4.94144C0.132041 5.76144 0.0520409 6.12144 0.482041 6.75144C1.84204 8.83144 7.59204 9.60144 9.32204 7.93144C11.102 6.21144 9.30204 3.07144 6.10204 2.28144C3.37204 1.61144 1.88204 2.14144 1.45204 3.92144C1.35204 4.34144 1.23204 4.55144 0.872041 4.94144Z M1.08999 8.96318C1.26999 8.96318 1.24999 8.70318 1.04999 8.47318C0.839987 8.24318 0.779987 8.23318 0.779987 8.46318C0.779987 8.70318 0.939987 8.96318 1.08999 8.96318Z M7.47887 10.2687C7.78887 10.7387 7.88887 10.7887 8.23887 10.6587L8.49887 10.5587L8.23887 10.4787C8.02887 10.3987 7.99887 10.3587 8.04887 10.1587C8.08887 9.93871 8.05887 9.90871 7.80887 9.85871C7.64887 9.81871 7.44887 9.77871 7.37887 9.76871C7.14887 9.70871 7.17887 9.80871 7.47887 10.2687Z M7.96021 12.1342C8.13021 12.2942 8.15021 12.2942 8.39021 12.1942C8.65021 12.1042 8.30021 11.8542 8.02021 11.9242C7.82021 11.9742 7.82021 11.9842 7.96021 12.1342Z M2.78486 5.20606C2.81486 4.96606 2.31486 4.34606 1.91486 4.15606C1.53486 3.95606 1.50486 4.00606 1.80486 4.29606C1.95486 4.45606 2.18486 4.78606 2.31486 5.03606C2.55486 5.49606 2.74486 5.56606 2.78486 5.20606Z M5.59366 5.81869C6.28366 5.59869 6.68366 5.52869 7.46366 5.49869C8.12366 5.46869 8.44366 5.41869 8.42366 5.35869C8.38366 5.23869 6.76366 5.20869 6.02366 5.30869C5.32366 5.41869 4.66366 5.63869 4.60366 5.78869C4.48366 6.07869 4.73366 6.08869 5.59366 5.81869Z " /><path id="路径 7" fill-rule="evenodd" style="fill:#000000" transform="translate(6.8717610799869515 8.029802058479412)  rotate(0 1.9245606364771126 0.3827328993317227)" opacity="1" d="M1.02,0.57C1.71,0.35 2.11,0.28 2.89,0.25C3.55,0.22 3.87,0.17 3.85,0.11C3.81,-0.01 2.19,-0.04 1.45,0.06C0.75,0.17 0.09,0.39 0.03,0.54C-0.09,0.83 0.16,0.84 1.02,0.57Z " /><path id="路径 6" fill-rule="evenodd" style="fill:#000000" transform="translate(3.8972950607664165 6.809352194777991)  rotate(0 0.5919965895182551 0.6998587921318741)" opacity="1" d="M1.18,1.17C1.21,0.93 0.71,0.31 0.31,0.12C-0.07,-0.08 -0.1,-0.03 0.2,0.26C0.35,0.42 0.58,0.75 0.71,1C0.95,1.46 1.14,1.53 1.18,1.17Z " /></g></g></g></g></g></g></svg>