<svg xmlns="http://www.w3.org/2000/svg" xmlns:xlink="http://www.w3.org/1999/xlink" width="16" height="16" viewBox="0 0 16 16" fill="none"><defs><rect id="path_0" x="0" y="0" width="16" height="16" /></defs><g opacity="1" transform="translate(0 0)  rotate(0 8 8)"><mask id="bg-mask-0" fill="white"><use xlink:href="#path_0"></use></mask><g mask="url(#bg-mask-0)" ><path id="矩形 1" fill-rule="evenodd" style="fill:#093744" transform="translate(0 0)  rotate(0 8 8)" opacity="1" d="M0,16L16,16L16,0L0,0L0,16Z " /><path id="文本 1" fill-rule="evenodd" style="fill:#FFFFFF" transform="translate(2.461999999999989 2.4980000000000473)  rotate(0 5.537999999999999 5.502)" opacity="1" d="M4.6 0.26L5.52 0C5.8 0.42 6.07 0.94 6.07 0.94C6.34 1.45 6.46 1.84 6.46 1.84L5.48 2.15C5.38 1.78 5.12 1.24 5.12 1.24C4.87 0.71 4.6 0.26 4.6 0.26ZM3.26 5.57C3.26 5.57 3.97 6.73 4.9 7.69C4.9 7.69 2.95 9.34 0 10.18C0 10.18 0.13 10.33 0.3 10.58C0.3 10.58 0.47 10.84 0.55 11C0.55 11 2.05 10.52 3.29 9.86C3.29 9.86 4.54 9.2 5.54 8.33C5.54 8.33 7.55 10.13 10.46 10.96C10.46 10.96 10.57 10.76 10.75 10.52C10.75 10.52 10.92 10.28 11.08 10.13C11.08 10.13 9.65 9.78 8.44 9.16C8.44 9.16 7.22 8.53 6.23 7.69C6.23 7.69 7.13 6.77 7.82 5.62C7.82 5.62 8.52 4.46 9.04 3.05L10.92 3.05L10.92 2.17L0.17 2.17L0.17 3.05L2.02 3.05C2.02 3.05 2.54 4.4 3.26 5.57ZM4.06 5.2C4.06 5.2 3.41 4.19 2.94 3.05L8.03 3.05C8.03 3.05 7.58 4.26 6.97 5.26C6.97 5.26 6.36 6.25 5.56 7.07C5.56 7.07 4.72 6.22 4.06 5.2Z" /></g></g></svg>