<svg xmlns="http://www.w3.org/2000/svg" xmlns:xlink="http://www.w3.org/1999/xlink" width="30" height="30" viewBox="0 0 30 30" fill="none"><defs><rect id="path_0" x="0" y="0" width="30" height="30" /><rect id="path_1" x="0" y="0" width="22" height="22" /></defs><g opacity="1" transform="translate(0 0)  rotate(0 15 15)"><mask id="bg-mask" fill="white"><use xlink:href="#path_0"></use></mask><g mask="url(#bg-mask)" ><path id="矩形 1" fill-rule="evenodd" style="fill:#306CFF" transform="translate(0 0)  rotate(0 15 15)" opacity="1" d="M0,30L30,30L30,0L0,0L0,30Z " /><g opacity="1" transform="translate(4 4)  rotate(0 11 11)"><mask id="bg-mask" fill="white"><use xlink:href="#path_1"></use></mask><g mask="url(#bg-mask)" ><path id="分组 1" fill-rule="evenodd" style="fill:#FFFFFF" transform="translate(1.084735425521319 0.000003109633320841354)  rotate(0 10.016654403864065 10.92408105047546)" opacity="1" d="M6.34255 0.34C5.85255 0.67 5.52255 1.22 5.30255 1.77C5.02255 2.76 4.97255 3.75 5.24255 4.74C5.46255 5.35 5.79255 5.95 6.34255 6.39C6.67255 6.66 7.11255 6.83 7.49255 6.77C7.93255 6.77 8.32255 6.55 8.65255 6.28C9.03255 5.95 9.31255 5.51 9.53255 5.02C9.91255 4.08 9.91255 2.93 9.58255 1.94C9.36255 1.28 8.98255 0.67 8.43255 0.29C8.10255 0.07 7.60255 -0.04 7.16255 0.01C6.89255 0.07 6.61255 0.18 6.34255 0.34Z M12.5584 1.00407C12.1684 1.33407 11.8384 1.71407 11.6184 2.15407C11.3984 2.54407 11.1784 2.98407 11.1284 3.47407C11.0684 4.02407 11.0684 4.57407 11.1784 5.07407C11.2884 5.56407 11.4584 6.06407 11.8384 6.44407C12.2284 6.77407 12.7184 6.99407 13.2084 6.99407C13.6484 7.05407 14.0384 6.94407 14.4184 6.72407C14.8084 6.50407 15.1384 6.17407 15.3584 5.78407C15.6284 5.34407 15.8484 4.90407 16.0184 4.41407C16.1284 4.02407 16.1784 3.58407 16.1284 3.14407C16.0684 2.54407 15.7984 1.99407 15.4084 1.49407C15.1384 1.16407 14.8084 0.834067 14.4184 0.674067C14.1484 0.564067 13.8184 0.454067 13.5384 0.504067C13.1584 0.564067 12.8284 0.784067 12.5584 1.00407Z M4.97 9.74765C5.19 9.02765 5.19 8.31765 5.13 7.59765C5.13 7.32765 5.02 7.04765 4.91 6.77765C4.64 6.16765 4.14 5.61765 3.54 5.28765C3.04 5.06765 2.55 4.95765 2.11 5.06765C1.56 5.12765 1.12 5.50765 0.79 5.94765C0.35 6.55765 0.13 7.32765 0.02 8.03765C-0.03 8.47765 0.02 8.91765 0.13 9.35765C0.3 10.0177 0.63 10.6177 1.12 11.0577C1.51 11.3877 2 11.5577 2.49 11.5577C3.1 11.5577 3.7 11.3877 4.2 10.9477C4.58 10.6177 4.8 10.1777 4.97 9.74765Z M18.6021 6.99058C18.1021 6.72058 17.5021 6.66058 16.9521 6.72058C16.6721 6.77058 16.3421 6.83058 16.0721 6.99058C15.6821 7.21058 15.4121 7.60058 15.1921 8.04058C14.9721 8.59058 14.8621 9.19058 14.8621 9.80058C14.8621 10.3506 14.8621 10.9506 15.0221 11.5006C15.1321 11.8906 15.3521 12.3306 15.7421 12.5506C16.1221 12.8806 16.6221 12.9906 17.1121 13.0406C17.5021 13.1006 17.9421 13.1006 18.3221 12.9906C18.7121 12.8806 19.0921 12.6606 19.3121 12.3306C19.5921 12.0006 19.7521 11.5606 19.8121 11.1706C20.0821 10.5106 20.0321 9.91058 20.0321 9.30058C19.9721 8.86058 19.8621 8.48058 19.6421 8.09058C19.4221 7.65058 19.0421 7.21058 18.6021 6.99058Z M16.6758 21.3394C17.2258 21.0694 17.6658 20.5694 17.9358 20.0194C18.3758 19.3094 18.5958 18.4794 18.4858 17.5993C18.4358 16.8294 18.0458 16.0594 17.4958 15.4594C17.3858 15.3494 17.2758 15.2394 17.1158 15.1294C16.4058 14.5294 15.6858 13.8694 14.9758 13.2094C14.2558 12.4894 13.5958 11.7194 12.9958 10.8994C12.5558 10.1794 11.9458 9.51935 11.1258 9.13935C10.6258 8.91935 10.0258 8.80935 9.47576 8.85935C8.48576 8.96935 7.60576 9.51935 7.00576 10.2894C6.83576 10.4594 6.72576 10.6794 6.61576 10.8994C6.17576 11.5594 5.62576 12.2194 5.02576 12.7694C4.69576 13.0994 4.36576 13.3694 4.03576 13.6494C3.86576 13.8094 3.64576 13.9794 3.48576 14.1394C2.82576 14.6394 2.16576 15.2894 1.77576 16.0093C1.50576 16.4994 1.33576 17.0494 1.28576 17.6594C1.28576 18.1494 1.33576 18.6494 1.50576 19.0894C1.66576 19.5793 1.88576 20.0793 2.21576 20.4594C2.76576 21.1194 3.59576 21.5594 4.41576 21.6194C5.46576 21.6693 6.50576 21.6194 7.49576 21.4494C7.93576 21.3994 8.37576 21.2294 8.87576 21.1794C9.85576 21.0694 10.8458 21.1194 11.7858 21.3994C12.5558 21.6693 13.3758 21.7794 14.2058 21.8394C15.0258 21.8894 15.9058 21.7794 16.6758 21.3394Z M4.03278 17.7112C4.09278 18.1512 4.25278 18.5412 4.53278 18.8712C4.86278 19.3612 5.35278 19.6912 5.90278 19.8012C6.17278 19.8612 6.45278 19.8612 6.72278 19.8612L9.25278 19.8612C9.25278 17.3812 9.25278 14.8512 9.20278 12.2712L7.77278 12.2712L7.77278 14.3612L6.28278 14.3612C6.12278 14.3612 5.95278 14.4112 5.79278 14.4712C5.41278 14.6312 5.02278 14.8512 4.75278 15.1312C4.42278 15.4612 4.14278 15.9012 4.03278 16.3912C3.98278 16.8312 3.98278 17.2712 4.03278 17.7112Z M9.97022 18.3697C9.97022 18.7597 10.1302 19.1997 10.4602 19.4697C10.7402 19.6897 11.0702 19.7997 11.4502 19.8597L14.9202 19.8597L14.9202 14.5797L13.4902 14.5797L13.4902 18.6497L12.0002 18.6497C11.8402 18.6497 11.6702 18.5897 11.5602 18.4797C11.4502 18.3697 11.4002 18.2597 11.4002 18.0997L11.4002 14.6297L9.97022 14.6297L9.97022 18.3697Z " /><path id="路径 8" fill-rule="evenodd" style="fill:#FFFFFF" transform="translate(6.437900390625 15.711222707084088)  rotate(0 1.2092373046874996 1.4996488801315007)" opacity="1" d="M2.42,0.02L1.15,0.02C1.1,-0.03 0.99,0.02 0.88,0.08C0.6,0.19 0.33,0.41 0.16,0.74C0.05,1.01 0,1.29 0,1.56C0,1.89 0.11,2.22 0.27,2.5C0.49,2.83 0.88,3.05 1.26,2.99L2.42,2.99L2.42,0.02Z " /></g></g></g></g></svg>